<svg xmlns="http://www.w3.org/2000/svg" version="1.1" xmlns:xlink="http://www.w3.org/1999/xlink" width="2000" height="1500" viewBox="0 0 2000 1500"><rect width="2000" height="1500" x="0" y="0" id="background" stroke="transparent" fill="#ffffff"></rect><svg xml:space="preserve" width="1500" height="1125" data-version="2" data-id="lg_ki4LE63h2cvYAtCe9i" viewBox="0 0 634 634" x="250" y="187.5"><rect width="100%" height="100%" fill="transparent"></rect><g transform="translate(317 317)scale(5.9249)"><linearGradient id="a" x1="0" x2="1" y1="0" y2="0" gradientUnits="objectBoundingBox"><stop offset="0%" stop-color="#ff6cab"></stop><stop offset="100%" stop-color="#7366ff"></stop></linearGradient><circle r="50" fill="none" stroke="url(#a)" stroke-width="5" paint-order="stroke"></circle></g><g transform="translate(317 317)scale(4.7536)"><linearGradient id="b" x1="0" x2="1" y1="0" y2="0" gradientUnits="objectBoundingBox"><stop offset="0%" stop-color="#ff6cab"></stop><stop offset="100%" stop-color="#7366ff"></stop></linearGradient><circle r="50" fill="none" stroke="url(#b)" stroke-width="3" paint-order="stroke"></circle></g><g transform="translate(198.9 306.24)"><linearGradient id="c" x1="-.07" x2="1.59" y1="0" y2="0" gradientUnits="objectBoundingBox"><stop offset="0%" stop-color="#ff6cab"></stop><stop offset="100%" stop-color="#7366ff"></stop></linearGradient><path fill="url(#c)" d="M297.64 329q-10.86 0-19.22 4.21-8.37 4.21-14.04 12.15-5.68 7.93-8.61 19.16-2.93 11.23-2.93 25.27 0 18.92 4.7 32.29 4.7 13.36 14.59 20.38t25.51 7.02q10.87 0 21.79-2.44 10.93-2.44 23.74-6.96v31.74q-11.84 4.88-23.31 7.02-11.48 2.14-25.76 2.14-27.59 0-45.35-11.42-17.76-11.41-26.3-31.98-8.55-20.57-8.55-48.03 0-20.27 5.49-37.11 5.5-16.85 16.12-29.18 10.62-12.33 26.24-19.04 15.63-6.72 35.89-6.72 13.31 0 26.67 3.36 13.37 3.36 25.58 9.22l-12.21 30.76q-10.01-4.76-20.14-8.3-10.13-3.54-19.9-3.54" transform="translate(-281.9 -389.24)"></path></g><rect width="135.99" height="183.48" x="-68" y="-91.74" fill="none" rx="0" ry="0" transform="translate(199.4 306.74)"></rect><g transform="translate(396.53 306.3)"><linearGradient id="d" x1="-.7" x2=".04" y1="0" y2="0" gradientUnits="objectBoundingBox"><stop offset="0%" stop-color="#ff6cab"></stop><stop offset="100%" stop-color="#7366ff"></stop></linearGradient><path fill="url(#d)" d="m600.38 300.07-45.41 178.47h-43.09l-24.17-93.75q-.74-2.69-1.96-8.18-1.22-5.5-2.56-12.03-1.34-6.53-2.38-12.33-1.04-5.8-1.41-9.21-.36 3.41-1.4 9.15t-2.32 12.21q-1.28 6.47-2.5 12.08-1.22 5.62-1.95 8.55l-24.05 93.51h-42.97l-45.53-178.47h37.23l22.83 97.41q.97 4.39 2.25 10.5 1.29 6.1 2.57 12.75 1.28 6.66 2.32 12.82 1.03 6.17 1.52 10.68.61-4.64 1.59-10.8.98-6.16 2.14-12.57 1.16-6.41 2.38-11.91 1.22-5.49 2.19-8.91l26-99.97h35.77l26 99.97q.86 3.3 2.02 8.85 1.16 5.56 2.38 12.03t2.25 12.63q1.04 6.17 1.53 10.68.85-6.1 2.38-14.83 1.53-8.73 3.3-17.39 1.77-8.67 3.11-14.53l22.7-97.41Z" transform="translate(-479.53 -389.3)"></path></g><rect width="241.7" height="178.47" x="-120.85" y="-89.23" fill="none" rx="0" ry="0" transform="translate(397.03 306.8)"></rect></svg></svg>